<svg xmlns="http://www.w3.org/2000/svg" enable-background="new 0 0 1000 1000" viewBox="0 0 1000 1000"><rect width="1000" height="1000" fill="#6b5465"/><path fill="#353535" stroke="#353535" stroke-linecap="round" stroke-linejoin="round" stroke-miterlimit="10" stroke-width="6" d="
		M677,485.583V457c0-3.314-2.686-6-6-6H329c-3.314,0-6,2.686-6,6v28.583c13.255,0,24,10.745,24,24s-10.745,24-24,24V593
		c0,1.105,0.895,2,2,2h204.361v-23h16.529v23H675c1.105,0,2-0.895,2-2v-59.417c-13.255,0-24-10.745-24-24
		S663.745,485.583,677,485.583z M342.194,572c-4.971,0-9-4.029-9-9c0-4.971,4.029-9,9-9s9,4.029,9,9
		C351.194,567.971,347.165,572,342.194,572z M658.194,554c4.971,0,9,4.029,9,9c0,4.971-4.029,9-9,9s-9-4.029-9-9
		C649.194,558.029,653.223,554,658.194,554z" opacity=".31"/><path fill="#14b0bf" d="M677,478.583V450c0-3.314-2.686-6-6-6H329c-3.314,0-6,2.686-6,6v28.583
		c13.255,0,24,10.745,24,24s-10.745,24-24,24V586c0,1.105,0.895,2,2,2h204.361v-23h16.529v23H675c1.105,0,2-0.895,2-2v-59.417
		c-13.255,0-24-10.745-24-24S663.745,478.583,677,478.583z M342.194,565c-4.971,0-9-4.029-9-9c0-4.971,4.029-9,9-9s9,4.029,9,9
		C351.194,560.971,347.165,565,342.194,565z M658.194,547c4.971,0,9,4.029,9,9c0,4.971-4.029,9-9,9s-9-4.029-9-9
		C649.194,551.029,653.223,547,658.194,547z"/><path fill="#24c1c9" d="M677,453v-5.4c0-1.988-2.686-3.6-6-3.6H329c-3.314,0-6,1.612-6,3.6v5.4H677z"/><rect width="130.986" height="26" x="546.014" y="562" fill="#353535"/><line x1="361.832" x2="638.168" y1="549.069" y2="549.069" fill="none" stroke="#353535" stroke-linecap="round" stroke-linejoin="round" stroke-miterlimit="10" stroke-width="7"/><circle cx="658.194" cy="556" r="9" fill="none" stroke="#194254" stroke-linecap="round" stroke-linejoin="round" stroke-miterlimit="10" stroke-width="6"/><rect width="206.361" height="26" x="323" y="562" fill="#353535"/><path fill="#fce18d" d="M519.843 588h-7.16c-.508 0-.92-.412-.92-.92V569c0-1.657 1.343-3 3-3h3c1.657 0 3 1.343 3 3v18.08C520.763 587.588 520.351 588 519.843 588zM505.843 588h-7.16c-.508 0-.92-.412-.92-.92V569c0-1.657 1.343-3 3-3h3c1.657 0 3 1.343 3 3v18.08C506.763 587.588 506.351 588 505.843 588zM491.843 588h-7.16c-.508 0-.92-.412-.92-.92V569c0-1.657 1.343-3 3-3h3c1.657 0 3 1.343 3 3v18.08C492.763 587.588 492.351 588 491.843 588zM477.843 588h-7.16c-.508 0-.92-.412-.92-.92V569c0-1.657 1.343-3 3-3h3c1.657 0 3 1.343 3 3v18.08C478.763 587.588 478.351 588 477.843 588zM463.843 588h-7.16c-.508 0-.92-.412-.92-.92V569c0-1.657 1.343-3 3-3h3c1.657 0 3 1.343 3 3v18.08C464.763 587.588 464.351 588 463.843 588zM449.843 588h-7.16c-.508 0-.92-.412-.92-.92V569c0-1.657 1.343-3 3-3h3c1.657 0 3 1.343 3 3v18.08C450.763 587.588 450.351 588 449.843 588zM435.843 588h-7.16c-.508 0-.92-.412-.92-.92V569c0-1.657 1.343-3 3-3h3c1.657 0 3 1.343 3 3v18.08C436.763 587.588 436.351 588 435.843 588zM421.843 588h-7.16c-.508 0-.92-.412-.92-.92V569c0-1.657 1.343-3 3-3h3c1.657 0 3 1.343 3 3v18.08C422.763 587.588 422.351 588 421.843 588zM407.843 588h-7.16c-.508 0-.92-.412-.92-.92V569c0-1.657 1.343-3 3-3h3c1.657 0 3 1.343 3 3v18.08C408.763 587.588 408.351 588 407.843 588zM393.843 588h-7.16c-.508 0-.92-.412-.92-.92V569c0-1.657 1.343-3 3-3h3c1.657 0 3 1.343 3 3v18.08C394.763 587.588 394.351 588 393.843 588zM379.843 588h-7.16c-.508 0-.92-.412-.92-.92V569c0-1.657 1.343-3 3-3h3c1.657 0 3 1.343 3 3v18.08C380.763 587.588 380.351 588 379.843 588zM365.843 588h-7.16c-.508 0-.92-.412-.92-.92V569c0-1.657 1.343-3 3-3h3c1.657 0 3 1.343 3 3v18.08C366.763 587.588 366.351 588 365.843 588z"/><g><path fill="#fce18d" d="M647.556 588h-9v-19c0-1.657 1.343-3 3-3h3c1.657 0 3 1.343 3 3V588zM633.556 588h-9v-19c0-1.657 1.343-3 3-3h3c1.657 0 3 1.343 3 3V588zM619.556 588h-9v-19c0-1.657 1.343-3 3-3h3c1.657 0 3 1.343 3 3V588zM605.556 588h-9v-19c0-1.657 1.343-3 3-3h3c1.657 0 3 1.343 3 3V588zM591.556 588h-9v-19c0-1.657 1.343-3 3-3h3c1.657 0 3 1.343 3 3V588zM577.556 588h-9v-19c0-1.657 1.343-3 3-3h3c1.657 0 3 1.343 3 3V588zM563.556 588h-9v-19c0-1.657 1.343-3 3-3h3c1.657 0 3 1.343 3 3V588z"/></g><path fill="none" stroke="#194254" stroke-linecap="round" stroke-linejoin="round" stroke-miterlimit="10" stroke-width="6" d="
		M653,502.583c0-12.012,8.825-21.963,20.345-23.723c2.082-0.318,3.655-2.043,3.655-4.149v-20.529
		c0-5.623-4.559-10.182-10.182-10.182H333.182c-5.623,0-10.182,4.559-10.182,10.182v20.529c0,2.106,1.573,3.831,3.655,4.149
		c11.52,1.76,20.345,11.711,20.345,23.723c0,12.012-8.825,21.963-20.345,23.723c-2.082,0.318-3.655,2.043-3.655,4.149v51.362
		c0,3.414,2.768,6.182,6.182,6.182h195.996c2.31,0,4.182-1.872,4.182-4.182V565h16.529v18.818c0,2.31,1.872,4.182,4.182,4.182
		h120.746c3.414,0,6.182-2.768,6.182-6.182v-51.362c0-2.106-1.573-3.831-3.655-4.149C661.825,524.547,653,514.596,653,502.583z"/><circle cx="342.194" cy="556" r="9" fill="none" stroke="#194254" stroke-linecap="round" stroke-linejoin="round" stroke-miterlimit="10" stroke-width="6"/><g><path fill="#2c5871" d="M405.832,535.583h-34c-2.209,0-4-1.791-4-4v-50c0-2.209,1.791-4,4-4
			h34c2.209,0,4,1.791,4,4v50C409.832,533.792,408.041,535.583,405.832,535.583z" opacity=".2"/><line x1="361.832" x2="367.832" y1="526.583" y2="526.583" fill="none" stroke="#eae9da" stroke-linecap="round" stroke-linejoin="round" stroke-miterlimit="10" stroke-width="4"/><line x1="361.832" x2="367.832" y1="518.583" y2="518.583" fill="none" stroke="#eae9da" stroke-linecap="round" stroke-linejoin="round" stroke-miterlimit="10" stroke-width="4"/><line x1="361.832" x2="367.832" y1="510.583" y2="510.583" fill="none" stroke="#eae9da" stroke-linecap="round" stroke-linejoin="round" stroke-miterlimit="10" stroke-width="4"/><line x1="361.832" x2="367.832" y1="502.583" y2="502.583" fill="none" stroke="#eae9da" stroke-linecap="round" stroke-linejoin="round" stroke-miterlimit="10" stroke-width="4"/><line x1="361.832" x2="367.832" y1="494.583" y2="494.583" fill="none" stroke="#eae9da" stroke-linecap="round" stroke-linejoin="round" stroke-miterlimit="10" stroke-width="4"/><line x1="361.832" x2="367.832" y1="486.583" y2="486.583" fill="none" stroke="#eae9da" stroke-linecap="round" stroke-linejoin="round" stroke-miterlimit="10" stroke-width="4"/><line x1="361.832" x2="367.832" y1="478.583" y2="478.583" fill="none" stroke="#eae9da" stroke-linecap="round" stroke-linejoin="round" stroke-miterlimit="10" stroke-width="4"/><g><line x1="409.832" x2="415.832" y1="526.583" y2="526.583" fill="none" stroke="#eae9da" stroke-linecap="round" stroke-linejoin="round" stroke-miterlimit="10" stroke-width="4"/><line x1="409.832" x2="415.832" y1="518.583" y2="518.583" fill="none" stroke="#eae9da" stroke-linecap="round" stroke-linejoin="round" stroke-miterlimit="10" stroke-width="4"/><line x1="409.832" x2="415.832" y1="510.583" y2="510.583" fill="none" stroke="#eae9da" stroke-linecap="round" stroke-linejoin="round" stroke-miterlimit="10" stroke-width="4"/><line x1="409.832" x2="415.832" y1="502.583" y2="502.583" fill="none" stroke="#eae9da" stroke-linecap="round" stroke-linejoin="round" stroke-miterlimit="10" stroke-width="4"/><line x1="409.832" x2="415.832" y1="494.583" y2="494.583" fill="none" stroke="#eae9da" stroke-linecap="round" stroke-linejoin="round" stroke-miterlimit="10" stroke-width="4"/><line x1="409.832" x2="415.832" y1="486.583" y2="486.583" fill="none" stroke="#eae9da" stroke-linecap="round" stroke-linejoin="round" stroke-miterlimit="10" stroke-width="4"/><line x1="409.832" x2="415.832" y1="478.583" y2="478.583" fill="none" stroke="#eae9da" stroke-linecap="round" stroke-linejoin="round" stroke-miterlimit="10" stroke-width="4"/></g><path fill="#2c5871" d="M405.832,531.583h-34c-2.209,0-4-1.791-4-4v-50c0-2.209,1.791-4,4-4h34
			c2.209,0,4,1.791,4,4v50C409.832,529.792,408.041,531.583,405.832,531.583z"/><path fill="#3d6d82" d="M371.832,525.862v-46.558c0-0.95,0.771-1.721,1.721-1.721h30.558
			c0.95,0,1.721,0.771,1.721,1.721v46.558c0,0.95-0.771,1.721-1.721,1.721h-30.558C372.602,527.583,371.832,526.813,371.832,525.862
			z"/><polyline fill="none" stroke="#eae9da" stroke-linecap="round" stroke-linejoin="round" stroke-miterlimit="10" stroke-width="2" points="378.527 488.667 378.527 502.583 378.527 516"/><line x1="382.944" x2="382.944" y1="494.583" y2="510.083" fill="none" stroke="#eae9da" stroke-linecap="round" stroke-linejoin="round" stroke-miterlimit="10"/><line x1="400.333" x2="400.333" y1="490.333" y2="514.333" fill="none" stroke="#eae9da" stroke-linecap="round" stroke-linejoin="round" stroke-miterlimit="10"/></g><g><path fill="#2c5871" d="M479.944,535.583h-34c-2.209,0-4-1.791-4-4v-50c0-2.209,1.791-4,4-4
			h34c2.209,0,4,1.791,4,4v50C483.944,533.792,482.153,535.583,479.944,535.583z" opacity=".2"/><line x1="435.944" x2="441.944" y1="526.583" y2="526.583" fill="none" stroke="#eae9da" stroke-linecap="round" stroke-linejoin="round" stroke-miterlimit="10" stroke-width="4"/><line x1="435.944" x2="441.944" y1="518.583" y2="518.583" fill="none" stroke="#eae9da" stroke-linecap="round" stroke-linejoin="round" stroke-miterlimit="10" stroke-width="4"/><line x1="435.944" x2="441.944" y1="510.583" y2="510.583" fill="none" stroke="#eae9da" stroke-linecap="round" stroke-linejoin="round" stroke-miterlimit="10" stroke-width="4"/><line x1="435.944" x2="441.944" y1="502.583" y2="502.583" fill="none" stroke="#eae9da" stroke-linecap="round" stroke-linejoin="round" stroke-miterlimit="10" stroke-width="4"/><line x1="435.944" x2="441.944" y1="494.583" y2="494.583" fill="none" stroke="#eae9da" stroke-linecap="round" stroke-linejoin="round" stroke-miterlimit="10" stroke-width="4"/><line x1="435.944" x2="441.944" y1="486.583" y2="486.583" fill="none" stroke="#eae9da" stroke-linecap="round" stroke-linejoin="round" stroke-miterlimit="10" stroke-width="4"/><line x1="435.944" x2="441.944" y1="478.583" y2="478.583" fill="none" stroke="#eae9da" stroke-linecap="round" stroke-linejoin="round" stroke-miterlimit="10" stroke-width="4"/><g><line x1="483.944" x2="489.944" y1="526.583" y2="526.583" fill="none" stroke="#eae9da" stroke-linecap="round" stroke-linejoin="round" stroke-miterlimit="10" stroke-width="4"/><line x1="483.944" x2="489.944" y1="518.583" y2="518.583" fill="none" stroke="#eae9da" stroke-linecap="round" stroke-linejoin="round" stroke-miterlimit="10" stroke-width="4"/><line x1="483.944" x2="489.944" y1="510.583" y2="510.583" fill="none" stroke="#eae9da" stroke-linecap="round" stroke-linejoin="round" stroke-miterlimit="10" stroke-width="4"/><line x1="483.944" x2="489.944" y1="502.583" y2="502.583" fill="none" stroke="#eae9da" stroke-linecap="round" stroke-linejoin="round" stroke-miterlimit="10" stroke-width="4"/><line x1="483.944" x2="489.944" y1="494.583" y2="494.583" fill="none" stroke="#eae9da" stroke-linecap="round" stroke-linejoin="round" stroke-miterlimit="10" stroke-width="4"/><line x1="483.944" x2="489.944" y1="486.583" y2="486.583" fill="none" stroke="#eae9da" stroke-linecap="round" stroke-linejoin="round" stroke-miterlimit="10" stroke-width="4"/><line x1="483.944" x2="489.944" y1="478.583" y2="478.583" fill="none" stroke="#eae9da" stroke-linecap="round" stroke-linejoin="round" stroke-miterlimit="10" stroke-width="4"/></g><path fill="#2c5871" d="M479.944,531.583h-34c-2.209,0-4-1.791-4-4v-50c0-2.209,1.791-4,4-4h34
			c2.209,0,4,1.791,4,4v50C483.944,529.792,482.153,531.583,479.944,531.583z"/><path fill="#3d6d82" d="M445.944,525.862v-46.558c0-0.95,0.771-1.721,1.721-1.721h30.558
			c0.95,0,1.721,0.771,1.721,1.721v46.558c0,0.95-0.771,1.721-1.721,1.721h-30.558C446.714,527.583,445.944,526.813,445.944,525.862
			z"/><polyline fill="none" stroke="#eae9da" stroke-linecap="round" stroke-linejoin="round" stroke-miterlimit="10" stroke-width="2" points="452.64 488.667 452.64 502.583 452.64 516"/><line x1="457.056" x2="457.056" y1="494.583" y2="510.083" fill="none" stroke="#eae9da" stroke-linecap="round" stroke-linejoin="round" stroke-miterlimit="10"/><line x1="474.446" x2="474.446" y1="490.333" y2="514.333" fill="none" stroke="#eae9da" stroke-linecap="round" stroke-linejoin="round" stroke-miterlimit="10"/></g><g><path fill="#2c5871" d="M554.056,535.583h-34c-2.209,0-4-1.791-4-4v-50c0-2.209,1.791-4,4-4
			h34c2.209,0,4,1.791,4,4v50C558.056,533.792,556.265,535.583,554.056,535.583z" opacity=".2"/><line x1="510.056" x2="516.056" y1="526.583" y2="526.583" fill="none" stroke="#eae9da" stroke-linecap="round" stroke-linejoin="round" stroke-miterlimit="10" stroke-width="4"/><line x1="510.056" x2="516.056" y1="518.583" y2="518.583" fill="none" stroke="#eae9da" stroke-linecap="round" stroke-linejoin="round" stroke-miterlimit="10" stroke-width="4"/><line x1="510.056" x2="516.056" y1="510.583" y2="510.583" fill="none" stroke="#eae9da" stroke-linecap="round" stroke-linejoin="round" stroke-miterlimit="10" stroke-width="4"/><line x1="510.056" x2="516.056" y1="502.583" y2="502.583" fill="none" stroke="#eae9da" stroke-linecap="round" stroke-linejoin="round" stroke-miterlimit="10" stroke-width="4"/><line x1="510.056" x2="516.056" y1="494.583" y2="494.583" fill="none" stroke="#eae9da" stroke-linecap="round" stroke-linejoin="round" stroke-miterlimit="10" stroke-width="4"/><line x1="510.056" x2="516.056" y1="486.583" y2="486.583" fill="none" stroke="#eae9da" stroke-linecap="round" stroke-linejoin="round" stroke-miterlimit="10" stroke-width="4"/><line x1="510.056" x2="516.056" y1="478.583" y2="478.583" fill="none" stroke="#eae9da" stroke-linecap="round" stroke-linejoin="round" stroke-miterlimit="10" stroke-width="4"/><g><line x1="558.056" x2="564.056" y1="526.583" y2="526.583" fill="none" stroke="#eae9da" stroke-linecap="round" stroke-linejoin="round" stroke-miterlimit="10" stroke-width="4"/><line x1="558.056" x2="564.056" y1="518.583" y2="518.583" fill="none" stroke="#eae9da" stroke-linecap="round" stroke-linejoin="round" stroke-miterlimit="10" stroke-width="4"/><line x1="558.056" x2="564.056" y1="510.583" y2="510.583" fill="none" stroke="#eae9da" stroke-linecap="round" stroke-linejoin="round" stroke-miterlimit="10" stroke-width="4"/><line x1="558.056" x2="564.056" y1="502.583" y2="502.583" fill="none" stroke="#eae9da" stroke-linecap="round" stroke-linejoin="round" stroke-miterlimit="10" stroke-width="4"/><line x1="558.056" x2="564.056" y1="494.583" y2="494.583" fill="none" stroke="#eae9da" stroke-linecap="round" stroke-linejoin="round" stroke-miterlimit="10" stroke-width="4"/><line x1="558.056" x2="564.056" y1="486.583" y2="486.583" fill="none" stroke="#eae9da" stroke-linecap="round" stroke-linejoin="round" stroke-miterlimit="10" stroke-width="4"/><line x1="558.056" x2="564.056" y1="478.583" y2="478.583" fill="none" stroke="#eae9da" stroke-linecap="round" stroke-linejoin="round" stroke-miterlimit="10" stroke-width="4"/></g><path fill="#2c5871" d="M554.056,531.583h-34c-2.209,0-4-1.791-4-4v-50c0-2.209,1.791-4,4-4h34
			c2.209,0,4,1.791,4,4v50C558.056,529.792,556.265,531.583,554.056,531.583z"/><path fill="#3d6d82" d="M520.056,525.862v-46.558c0-0.95,0.771-1.721,1.721-1.721h30.558
			c0.95,0,1.721,0.771,1.721,1.721v46.558c0,0.95-0.771,1.721-1.721,1.721h-30.558C520.827,527.583,520.056,526.813,520.056,525.862
			z"/><polyline fill="none" stroke="#eae9da" stroke-linecap="round" stroke-linejoin="round" stroke-miterlimit="10" stroke-width="2" points="526.752 488.667 526.752 502.583 526.752 516"/><line x1="531.169" x2="531.169" y1="494.583" y2="510.083" fill="none" stroke="#eae9da" stroke-linecap="round" stroke-linejoin="round" stroke-miterlimit="10"/><line x1="548.558" x2="548.558" y1="490.333" y2="514.333" fill="none" stroke="#eae9da" stroke-linecap="round" stroke-linejoin="round" stroke-miterlimit="10"/></g><g><path fill="#2c5871" d="M628.168,535.583h-34c-2.209,0-4-1.791-4-4v-50c0-2.209,1.791-4,4-4
			h34c2.209,0,4,1.791,4,4v50C632.168,533.792,630.377,535.583,628.168,535.583z" opacity=".2"/><line x1="584.168" x2="590.168" y1="526.583" y2="526.583" fill="none" stroke="#eae9da" stroke-linecap="round" stroke-linejoin="round" stroke-miterlimit="10" stroke-width="4"/><line x1="584.168" x2="590.168" y1="518.583" y2="518.583" fill="none" stroke="#eae9da" stroke-linecap="round" stroke-linejoin="round" stroke-miterlimit="10" stroke-width="4"/><line x1="584.168" x2="590.168" y1="510.583" y2="510.583" fill="none" stroke="#eae9da" stroke-linecap="round" stroke-linejoin="round" stroke-miterlimit="10" stroke-width="4"/><line x1="584.168" x2="590.168" y1="502.583" y2="502.583" fill="none" stroke="#eae9da" stroke-linecap="round" stroke-linejoin="round" stroke-miterlimit="10" stroke-width="4"/><line x1="584.168" x2="590.168" y1="494.583" y2="494.583" fill="none" stroke="#eae9da" stroke-linecap="round" stroke-linejoin="round" stroke-miterlimit="10" stroke-width="4"/><line x1="584.168" x2="590.168" y1="486.583" y2="486.583" fill="none" stroke="#eae9da" stroke-linecap="round" stroke-linejoin="round" stroke-miterlimit="10" stroke-width="4"/><line x1="584.168" x2="590.168" y1="478.583" y2="478.583" fill="none" stroke="#eae9da" stroke-linecap="round" stroke-linejoin="round" stroke-miterlimit="10" stroke-width="4"/><g><line x1="632.168" x2="638.168" y1="526.583" y2="526.583" fill="none" stroke="#eae9da" stroke-linecap="round" stroke-linejoin="round" stroke-miterlimit="10" stroke-width="4"/><line x1="632.168" x2="638.168" y1="518.583" y2="518.583" fill="none" stroke="#eae9da" stroke-linecap="round" stroke-linejoin="round" stroke-miterlimit="10" stroke-width="4"/><line x1="632.168" x2="638.168" y1="510.583" y2="510.583" fill="none" stroke="#eae9da" stroke-linecap="round" stroke-linejoin="round" stroke-miterlimit="10" stroke-width="4"/><line x1="632.168" x2="638.168" y1="502.583" y2="502.583" fill="none" stroke="#eae9da" stroke-linecap="round" stroke-linejoin="round" stroke-miterlimit="10" stroke-width="4"/><line x1="632.168" x2="638.168" y1="494.583" y2="494.583" fill="none" stroke="#eae9da" stroke-linecap="round" stroke-linejoin="round" stroke-miterlimit="10" stroke-width="4"/><line x1="632.168" x2="638.168" y1="486.583" y2="486.583" fill="none" stroke="#eae9da" stroke-linecap="round" stroke-linejoin="round" stroke-miterlimit="10" stroke-width="4"/><line x1="632.168" x2="638.168" y1="478.583" y2="478.583" fill="none" stroke="#eae9da" stroke-linecap="round" stroke-linejoin="round" stroke-miterlimit="10" stroke-width="4"/></g><path fill="#2c5871" d="M628.168,531.583h-34c-2.209,0-4-1.791-4-4v-50c0-2.209,1.791-4,4-4h34
			c2.209,0,4,1.791,4,4v50C632.168,529.792,630.377,531.583,628.168,531.583z"/><path fill="#3d6d82" d="M594.169,525.862v-46.558c0-0.95,0.771-1.721,1.721-1.721h30.558
			c0.95,0,1.721,0.771,1.721,1.721v46.558c0,0.95-0.771,1.721-1.721,1.721H595.89C594.939,527.583,594.169,526.813,594.169,525.862z
			"/><polyline fill="none" stroke="#eae9da" stroke-linecap="round" stroke-linejoin="round" stroke-miterlimit="10" stroke-width="2" points="600.864 488.667 600.864 502.583 600.864 516"/><line x1="605.281" x2="605.281" y1="494.583" y2="510.083" fill="none" stroke="#eae9da" stroke-linecap="round" stroke-linejoin="round" stroke-miterlimit="10"/><line x1="622.67" x2="622.67" y1="490.333" y2="514.333" fill="none" stroke="#eae9da" stroke-linecap="round" stroke-linejoin="round" stroke-miterlimit="10"/></g></svg>