<svg xmlns="http://www.w3.org/2000/svg" enable-background="new 0 0 1000 1000" viewBox="0 0 1000 1000"><rect width="1000" height="1000" fill="#1478c9"/><path fill="#232323" stroke="#232323" stroke-linecap="round" stroke-linejoin="round" stroke-miterlimit="10" stroke-width="8" d="
	M764.961,498.644L308.067,777.577c-14.141,8.633-32.604,4.168-41.237-9.973L109.278,509.533
	c-8.633-14.141-4.168-32.604,9.973-41.237l456.894-278.932c14.141-8.633,32.604-4.168,41.237,9.973l157.551,258.071
	C783.568,471.548,779.103,490.011,764.961,498.644z" opacity=".5"/><path fill="#43597a" d="M767.733,477.009L310.838,755.942c-14.141,8.633-32.604,4.168-41.237-9.973
		L112.05,487.898c-8.633-14.142-4.168-32.604,9.973-41.237l456.894-278.932c14.141-8.633,32.604-4.168,41.237,9.973l157.551,258.07
		C786.339,449.913,781.874,468.376,767.733,477.009z"/><path fill="#43597a" d="M571.385,172.326l-9.941,6.069
		c18.301-11.173,42.195-5.394,53.367,12.907l148.355,243.007c11.173,18.301,5.394,42.195-12.907,53.367l9.941-6.069
		c18.301-11.173,24.08-35.066,12.907-53.368L624.753,185.233C613.58,166.932,589.687,161.153,571.385,172.326z" opacity=".4"/><path fill="#43597a" d="M277.705,730.682L129.35,487.675
		c-11.173-18.301-5.394-42.195,12.907-53.367l-14.912,9.104c-18.301,11.173-24.08,35.066-12.907,53.368l148.355,243.007
		c11.173,18.301,35.066,24.08,53.367,12.907l14.912-9.104C312.772,754.761,288.878,748.983,277.705,730.682z" opacity=".2"/><path fill="none" stroke="#202454" stroke-linecap="round" stroke-linejoin="round" stroke-miterlimit="10" stroke-width="8" d="
		M767.733,477.009L310.838,755.942c-14.141,8.633-32.604,4.168-41.237-9.973L112.05,487.898
		c-8.633-14.142-4.168-32.604,9.973-41.237l456.894-278.932c14.141-8.633,32.604-4.168,41.237,9.973l157.551,258.07
		C786.339,449.913,781.874,468.376,767.733,477.009z"/><path fill="#2f3f56" d="M746.112,462.916L388.028,681.525c-8.485,5.18-19.563,2.501-24.742-5.984
		l-145.781-238.79c-5.18-8.485-2.501-19.563,5.984-24.743l358.084-218.609c8.485-5.18,19.562-2.501,24.742,5.984l145.781,238.79
		C757.276,446.658,754.597,457.736,746.112,462.916z"/><g opacity=".16"><line x1="269.982" x2="434.521" y1="383.625" y2="653.141" fill="none" stroke="#303b68" stroke-linecap="round" stroke-linejoin="round" stroke-miterlimit="10"/><line x1="323.001" x2="487.54" y1="351.256" y2="620.773" fill="none" stroke="#303b68" stroke-linecap="round" stroke-linejoin="round" stroke-miterlimit="10"/><line x1="376.021" x2="540.56" y1="318.888" y2="588.405" fill="none" stroke="#303b68" stroke-linecap="round" stroke-linejoin="round" stroke-miterlimit="10"/><line x1="429.041" x2="593.58" y1="286.52" y2="556.036" fill="none" stroke="#303b68" stroke-linecap="round" stroke-linejoin="round" stroke-miterlimit="10"/><line x1="482.06" x2="646.599" y1="254.151" y2="523.668" fill="none" stroke="#303b68" stroke-linecap="round" stroke-linejoin="round" stroke-miterlimit="10"/><line x1="535.08" x2="699.619" y1="221.783" y2="491.3" fill="none" stroke="#303b68" stroke-linecap="round" stroke-linejoin="round" stroke-miterlimit="10"/><line x1="241.842" x2="630.653" y1="476.617" y2="239.249" fill="none" stroke="#303b68" stroke-linecap="round" stroke-linejoin="round" stroke-miterlimit="10"/><line x1="274.211" x2="663.022" y1="529.636" y2="292.268" fill="none" stroke="#303b68" stroke-linecap="round" stroke-linejoin="round" stroke-miterlimit="10"/><line x1="306.579" x2="695.39" y1="582.656" y2="345.288" fill="none" stroke="#303b68" stroke-linecap="round" stroke-linejoin="round" stroke-miterlimit="10"/><line x1="338.947" x2="727.758" y1="635.676" y2="398.308" fill="none" stroke="#303b68" stroke-linecap="round" stroke-linejoin="round" stroke-miterlimit="10"/></g><path fill="none" stroke="#202454" stroke-linecap="round" stroke-linejoin="round" stroke-miterlimit="10" stroke-width="8" d="
		M746.112,462.916L388.028,681.525c-8.485,5.18-19.563,2.501-24.742-5.984l-145.781-238.79c-5.18-8.485-2.501-19.563,5.984-24.743
		l358.084-218.609c8.485-5.18,19.562-2.501,24.742,5.984l145.781,238.79C757.276,446.658,754.597,457.736,746.112,462.916z"/><g opacity=".8"><path fill="#43597a" d="M328.408 696.695l-25.104 15.326c-2.828 1.727-6.521.834-8.247-1.995l-9.931-16.268c-1.727-2.828-.834-6.521 1.995-8.247l25.104-15.326c2.828-1.727 6.521-.834 8.247 1.995l9.931 16.268C332.129 691.276 331.236 694.969 328.408 696.695zM301.434 652.512l-25.104 15.326c-2.828 1.727-6.521.834-8.247-1.995l-9.931-16.268c-1.727-2.828-.834-6.521 1.995-8.247l25.104-15.326c2.828-1.727 6.521-.834 8.247 1.995l9.931 16.268C305.155 647.093 304.262 650.786 301.434 652.512z"/></g><path fill="none" stroke="#202454" stroke-linecap="round" stroke-linejoin="round" stroke-miterlimit="10" stroke-width="8" d="M328.408 696.695l-25.104 15.326c-2.828 1.727-6.521.834-8.247-1.995l-9.931-16.268c-1.727-2.828-.834-6.521 1.995-8.247l25.104-15.326c2.828-1.727 6.521-.834 8.247 1.995l9.931 16.268C332.129 691.276 331.236 694.969 328.408 696.695zM301.434 652.512l-25.104 15.326c-2.828 1.727-6.521.834-8.247-1.995l-9.931-16.268c-1.727-2.828-.834-6.521 1.995-8.247l25.104-15.326c2.828-1.727 6.521-.834 8.247 1.995l9.931 16.268C305.155 647.093 304.262 650.786 301.434 652.512z"/><g opacity=".8"><path fill="#43597a" d="M230.403 536.164l-25.104 15.326c-2.828 1.727-6.521.834-8.247-1.995l-9.931-16.268c-1.727-2.828-.834-6.521 1.995-8.247l25.104-15.326c2.828-1.727 6.521-.834 8.247 1.995l9.931 16.268C234.125 530.744 233.232 534.437 230.403 536.164zM203.43 491.981l-25.104 15.326c-2.828 1.727-6.521.834-8.247-1.995l-9.931-16.268c-1.727-2.828-.834-6.521 1.995-8.247l25.104-15.326c2.828-1.727 6.521-.834 8.247 1.995l9.931 16.268C207.151 486.561 206.258 490.254 203.43 491.981z"/></g><path fill="none" stroke="#202454" stroke-linecap="round" stroke-linejoin="round" stroke-miterlimit="10" stroke-width="8" d="M230.403 536.164l-25.104 15.326c-2.828 1.727-6.521.834-8.247-1.995l-9.931-16.268c-1.727-2.828-.834-6.521 1.995-8.247l25.104-15.326c2.828-1.727 6.521-.834 8.247 1.995l9.931 16.268C234.125 530.744 233.232 534.437 230.403 536.164zM203.43 491.981l-25.104 15.326c-2.828 1.727-6.521.834-8.247-1.995l-9.931-16.268c-1.727-2.828-.834-6.521 1.995-8.247l25.104-15.326c2.828-1.727 6.521-.834 8.247 1.995l9.931 16.268C207.151 486.561 206.258 490.254 203.43 491.981z"/><circle cx="245.274" cy="588.746" r="31.06" fill="#b4c7e7" opacity=".8"/><circle cx="245.274" cy="588.746" r="31.06" fill="none" stroke="#22293f" stroke-linecap="round" stroke-linejoin="round" stroke-miterlimit="10" stroke-width="6"/><circle cx="245.274" cy="588.746" r="31.06" fill="none" stroke="#202454" stroke-linecap="round" stroke-linejoin="round" stroke-miterlimit="10" stroke-width="8"/><path fill="none" stroke="#202454" stroke-linecap="round" stroke-linejoin="round" stroke-miterlimit="10" stroke-width="5" d="
		M232.02,596.838c-4.462-7.309-2.146-16.885,5.163-21.347"/><line x1="663.879" x2="667.925" y1="432.757" y2="439.385" fill="none" stroke="#707a99" stroke-linecap="round" stroke-linejoin="round" stroke-miterlimit="10" stroke-width="3"/><line x1="669.216" x2="662.588" y1="434.048" y2="438.094" fill="none" stroke="#707a99" stroke-linecap="round" stroke-linejoin="round" stroke-miterlimit="10" stroke-width="3"/><line x1="610.859" x2="614.905" y1="465.125" y2="471.753" fill="none" stroke="#707a99" stroke-linecap="round" stroke-linejoin="round" stroke-miterlimit="10" stroke-width="3"/><line x1="616.196" x2="609.569" y1="466.416" y2="470.462" fill="none" stroke="#707a99" stroke-linecap="round" stroke-linejoin="round" stroke-miterlimit="10" stroke-width="3"/><line x1="557.84" x2="561.886" y1="497.494" y2="504.121" fill="none" stroke="#707a99" stroke-linecap="round" stroke-linejoin="round" stroke-miterlimit="10" stroke-width="3"/><line x1="563.176" x2="556.549" y1="498.785" y2="502.831" fill="none" stroke="#707a99" stroke-linecap="round" stroke-linejoin="round" stroke-miterlimit="10" stroke-width="3"/><g><line x1="504.82" x2="508.866" y1="529.862" y2="536.49" fill="none" stroke="#707a99" stroke-linecap="round" stroke-linejoin="round" stroke-miterlimit="10" stroke-width="3"/><line x1="510.157" x2="503.529" y1="531.153" y2="535.199" fill="none" stroke="#707a99" stroke-linecap="round" stroke-linejoin="round" stroke-miterlimit="10" stroke-width="3"/></g><g><line x1="451.8" x2="455.846" y1="562.23" y2="568.858" fill="none" stroke="#707a99" stroke-linecap="round" stroke-linejoin="round" stroke-miterlimit="10" stroke-width="3"/><line x1="457.137" x2="450.51" y1="563.521" y2="567.567" fill="none" stroke="#707a99" stroke-linecap="round" stroke-linejoin="round" stroke-miterlimit="10" stroke-width="3"/></g><g><line x1="398.781" x2="402.827" y1="594.599" y2="601.226" fill="none" stroke="#707a99" stroke-linecap="round" stroke-linejoin="round" stroke-miterlimit="10" stroke-width="3"/><line x1="404.117" x2="397.49" y1="595.89" y2="599.936" fill="none" stroke="#707a99" stroke-linecap="round" stroke-linejoin="round" stroke-miterlimit="10" stroke-width="3"/></g><g><line x1="631.511" x2="635.557" y1="379.737" y2="386.365" fill="none" stroke="#707a99" stroke-linecap="round" stroke-linejoin="round" stroke-miterlimit="10" stroke-width="3"/><line x1="636.847" x2="630.22" y1="381.028" y2="385.074" fill="none" stroke="#707a99" stroke-linecap="round" stroke-linejoin="round" stroke-miterlimit="10" stroke-width="3"/><line x1="578.491" x2="582.537" y1="412.106" y2="418.733" fill="none" stroke="#707a99" stroke-linecap="round" stroke-linejoin="round" stroke-miterlimit="10" stroke-width="3"/><line x1="583.828" x2="577.2" y1="413.397" y2="417.443" fill="none" stroke="#707a99" stroke-linecap="round" stroke-linejoin="round" stroke-miterlimit="10" stroke-width="3"/><line x1="525.471" x2="529.517" y1="444.474" y2="451.102" fill="none" stroke="#707a99" stroke-linecap="round" stroke-linejoin="round" stroke-miterlimit="10" stroke-width="3"/><line x1="530.808" x2="524.181" y1="445.765" y2="449.811" fill="none" stroke="#707a99" stroke-linecap="round" stroke-linejoin="round" stroke-miterlimit="10" stroke-width="3"/><g><line x1="472.452" x2="476.498" y1="476.842" y2="483.47" fill="none" stroke="#707a99" stroke-linecap="round" stroke-linejoin="round" stroke-miterlimit="10" stroke-width="3"/><line x1="477.788" x2="471.161" y1="478.133" y2="482.179" fill="none" stroke="#707a99" stroke-linecap="round" stroke-linejoin="round" stroke-miterlimit="10" stroke-width="3"/></g><g><line x1="419.432" x2="423.478" y1="509.211" y2="515.838" fill="none" stroke="#707a99" stroke-linecap="round" stroke-linejoin="round" stroke-miterlimit="10" stroke-width="3"/><line x1="424.769" x2="418.141" y1="510.501" y2="514.548" fill="none" stroke="#707a99" stroke-linecap="round" stroke-linejoin="round" stroke-miterlimit="10" stroke-width="3"/></g><g><line x1="366.412" x2="370.458" y1="541.579" y2="548.207" fill="none" stroke="#707a99" stroke-linecap="round" stroke-linejoin="round" stroke-miterlimit="10" stroke-width="3"/><line x1="371.749" x2="365.122" y1="542.87" y2="546.916" fill="none" stroke="#707a99" stroke-linecap="round" stroke-linejoin="round" stroke-miterlimit="10" stroke-width="3"/></g></g><g><line x1="599.142" x2="603.188" y1="326.718" y2="333.345" fill="none" stroke="#707a99" stroke-linecap="round" stroke-linejoin="round" stroke-miterlimit="10" stroke-width="3"/><line x1="604.479" x2="597.852" y1="328.008" y2="332.055" fill="none" stroke="#707a99" stroke-linecap="round" stroke-linejoin="round" stroke-miterlimit="10" stroke-width="3"/><line x1="546.123" x2="550.169" y1="359.086" y2="365.714" fill="none" stroke="#707a99" stroke-linecap="round" stroke-linejoin="round" stroke-miterlimit="10" stroke-width="3"/><line x1="551.459" x2="544.832" y1="360.377" y2="364.423" fill="none" stroke="#707a99" stroke-linecap="round" stroke-linejoin="round" stroke-miterlimit="10" stroke-width="3"/><line x1="493.103" x2="497.149" y1="391.454" y2="398.082" fill="none" stroke="#707a99" stroke-linecap="round" stroke-linejoin="round" stroke-miterlimit="10" stroke-width="3"/><line x1="498.44" x2="491.812" y1="392.745" y2="396.791" fill="none" stroke="#707a99" stroke-linecap="round" stroke-linejoin="round" stroke-miterlimit="10" stroke-width="3"/><g><line x1="440.083" x2="444.129" y1="423.823" y2="430.45" fill="none" stroke="#707a99" stroke-linecap="round" stroke-linejoin="round" stroke-miterlimit="10" stroke-width="3"/><line x1="445.42" x2="438.793" y1="425.113" y2="429.16" fill="none" stroke="#707a99" stroke-linecap="round" stroke-linejoin="round" stroke-miterlimit="10" stroke-width="3"/></g><g><line x1="387.064" x2="391.11" y1="456.191" y2="462.819" fill="none" stroke="#707a99" stroke-linecap="round" stroke-linejoin="round" stroke-miterlimit="10" stroke-width="3"/><line x1="392.4" x2="385.773" y1="457.482" y2="461.528" fill="none" stroke="#707a99" stroke-linecap="round" stroke-linejoin="round" stroke-miterlimit="10" stroke-width="3"/></g><g><line x1="334.044" x2="338.09" y1="488.559" y2="495.187" fill="none" stroke="#707a99" stroke-linecap="round" stroke-linejoin="round" stroke-miterlimit="10" stroke-width="3"/><line x1="339.381" x2="332.753" y1="489.85" y2="493.896" fill="none" stroke="#707a99" stroke-linecap="round" stroke-linejoin="round" stroke-miterlimit="10" stroke-width="3"/></g></g><g><line x1="566.774" x2="570.82" y1="273.698" y2="280.326" fill="none" stroke="#707a99" stroke-linecap="round" stroke-linejoin="round" stroke-miterlimit="10" stroke-width="3"/><line x1="572.111" x2="565.483" y1="274.989" y2="279.035" fill="none" stroke="#707a99" stroke-linecap="round" stroke-linejoin="round" stroke-miterlimit="10" stroke-width="3"/><line x1="513.754" x2="517.8" y1="306.066" y2="312.694" fill="none" stroke="#707a99" stroke-linecap="round" stroke-linejoin="round" stroke-miterlimit="10" stroke-width="3"/><line x1="519.091" x2="512.464" y1="307.357" y2="311.403" fill="none" stroke="#707a99" stroke-linecap="round" stroke-linejoin="round" stroke-miterlimit="10" stroke-width="3"/><line x1="460.735" x2="464.781" y1="338.435" y2="345.062" fill="none" stroke="#707a99" stroke-linecap="round" stroke-linejoin="round" stroke-miterlimit="10" stroke-width="3"/><line x1="466.071" x2="459.444" y1="339.725" y2="343.772" fill="none" stroke="#707a99" stroke-linecap="round" stroke-linejoin="round" stroke-miterlimit="10" stroke-width="3"/><g><line x1="407.715" x2="411.761" y1="370.803" y2="377.431" fill="none" stroke="#707a99" stroke-linecap="round" stroke-linejoin="round" stroke-miterlimit="10" stroke-width="3"/><line x1="413.052" x2="406.424" y1="372.094" y2="376.14" fill="none" stroke="#707a99" stroke-linecap="round" stroke-linejoin="round" stroke-miterlimit="10" stroke-width="3"/></g><g><line x1="354.695" x2="358.741" y1="403.171" y2="409.799" fill="none" stroke="#707a99" stroke-linecap="round" stroke-linejoin="round" stroke-miterlimit="10" stroke-width="3"/><line x1="360.032" x2="353.405" y1="404.462" y2="408.508" fill="none" stroke="#707a99" stroke-linecap="round" stroke-linejoin="round" stroke-miterlimit="10" stroke-width="3"/></g><g><line x1="301.676" x2="305.722" y1="435.54" y2="442.167" fill="none" stroke="#707a99" stroke-linecap="round" stroke-linejoin="round" stroke-miterlimit="10" stroke-width="3"/><line x1="307.012" x2="300.385" y1="436.831" y2="440.877" fill="none" stroke="#707a99" stroke-linecap="round" stroke-linejoin="round" stroke-miterlimit="10" stroke-width="3"/></g></g><g opacity=".17"><rect width="36.249" height="257.141" x="455.399" y="340.501" fill="#232323" stroke="#232323" stroke-linecap="round" stroke-linejoin="round" stroke-miterlimit="10" stroke-width="8" transform="rotate(-67.189 473.524 469.063)"/><path fill="#232323" stroke="#232323" stroke-linecap="round" stroke-linejoin="round" stroke-miterlimit="10" stroke-width="8" d="
			M597.601,505.691l-11.126,26.453l10.961,3.666c1.869,0.625,3.904-0.296,4.668-2.112l7.538-17.922
			c0.764-1.817-0.001-3.915-1.755-4.814L597.601,505.691z"/><rect width="41.158" height="44.934" x="537.871" y="482.324" fill="#232323" stroke="#232323" stroke-linecap="round" stroke-linejoin="round" stroke-miterlimit="10" stroke-width="8" transform="rotate(-67.189 558.45 504.781)"/><path fill="#232323" stroke="#232323" stroke-linecap="round" stroke-linejoin="round" stroke-miterlimit="10" stroke-width="8" d="
			M470.511,450.422l-0.566,1.346c-1.178,2.8-4.402,4.115-7.202,2.938l-67.478-28.381c-2.8-1.178-4.115-4.402-2.938-7.202
			l0.566-1.346c1.178-2.8,4.402-4.115,7.202-2.938l67.478,28.381C470.374,444.398,471.689,447.622,470.511,450.422z"/><polygon fill="#232323" stroke="#232323" stroke-linecap="round" stroke-linejoin="round" stroke-miterlimit="10" stroke-width="8" points="320.412 399.219 316.513 408.489 347.982 435.932 362.035 402.518"/><polygon fill="#232323" stroke="#232323" stroke-linecap="round" stroke-linejoin="round" stroke-miterlimit="10" stroke-width="8" points="317.195 406.866 309.323 400.016 319.725 400.852"/><line x1="301.755" x2="309.065" y1="396.827" y2="399.901" fill="#232323" stroke="#232323" stroke-linecap="round" stroke-linejoin="round" stroke-miterlimit="10" stroke-width="8"/></g><g><rect width="36.249" height="257.141" x="448.861" y="326.069" fill="#43597a" transform="rotate(-67.189 466.987 454.632)"/><rect width="11.328" height="257.141" x="456.491" y="337.555" fill="#43597a" opacity=".4" transform="rotate(-67.189 462.156 466.118)"/><rect width="11.328" height="257.141" x="466.153" y="314.583" fill="#43597a" opacity=".4" transform="rotate(-67.189 471.817 443.146)"/><rect width="36.249" height="257.141" x="448.861" y="326.069" fill="none" stroke="#202454" stroke-linecap="round" stroke-linejoin="round" stroke-miterlimit="10" stroke-width="8" transform="rotate(-67.189 466.987 454.632)"/><path fill="#6a87ad" d="M591.063,491.26l-11.126,26.453l10.961,3.666c1.869,0.625,3.904-0.296,4.668-2.112
			l7.538-17.923c0.764-1.817-0.001-3.915-1.755-4.814L591.063,491.26z"/><path fill="none" stroke="#202454" stroke-linecap="round" stroke-linejoin="round" stroke-miterlimit="10" stroke-width="8" d="
			M591.063,491.26l-11.126,26.453l10.961,3.666c1.869,0.625,3.904-0.296,4.668-2.112l7.538-17.923
			c0.764-1.817-0.001-3.915-1.755-4.814L591.063,491.26z"/><rect width="41.158" height="44.934" x="531.333" y="467.892" fill="#334665" transform="rotate(-67.189 551.913 490.35)"/><rect width="12.083" height="44.934" x="540.235" y="481.293" fill="#43597a" opacity=".25" transform="rotate(-67.189 546.277 503.75)"/><rect width="12.484" height="44.934" x="551.384" y="454.307" fill="#43597a" opacity=".4" transform="rotate(-67.189 557.627 476.765)"/><rect width="41.158" height="44.934" x="531.333" y="467.892" fill="none" stroke="#202454" stroke-linecap="round" stroke-linejoin="round" stroke-miterlimit="10" stroke-width="8" transform="rotate(-67.189 551.913 490.35)"/><path fill="#81a0c1" d="M463.974,435.991l-0.566,1.346c-1.178,2.8-4.402,4.115-7.202,2.938l-67.478-28.381
			c-2.8-1.178-4.115-4.402-2.938-7.202l0.566-1.346c1.178-2.8,4.402-4.115,7.202-2.938l67.478,28.381
			C463.836,429.966,465.152,433.191,463.974,435.991z"/><path fill="none" stroke="#202454" stroke-linecap="round" stroke-linejoin="round" stroke-miterlimit="10" stroke-width="8" d="
			M463.974,435.991l-0.566,1.346c-1.178,2.8-4.402,4.115-7.202,2.938l-67.478-28.381c-2.8-1.178-4.115-4.402-2.938-7.202
			l0.566-1.346c1.178-2.8,4.402-4.115,7.202-2.938l67.478,28.381C463.836,429.966,465.152,433.191,463.974,435.991z"/><polygon fill="#334665" points="313.874 384.787 309.975 394.058 341.444 421.501 355.498 388.087"/><polygon fill="#43597a" points="309.975 394.058 341.444 421.501 345.836 411.059 311.925 389.423" opacity=".4"/><polygon fill="#43597a" points="313.874 384.787 355.498 388.087 351.106 398.529 311.925 389.423" opacity=".4"/><polygon fill="none" stroke="#202454" stroke-linecap="round" stroke-linejoin="round" stroke-miterlimit="10" stroke-width="8" points="313.874 384.787 309.975 394.058 341.444 421.501 355.498 388.087"/><polygon fill="none" stroke="#202454" stroke-linecap="round" stroke-linejoin="round" stroke-miterlimit="10" stroke-width="8" points="310.658 392.435 302.786 385.585 313.187 386.421"/><line x1="295.218" x2="302.527" y1="382.396" y2="385.47" fill="none" stroke="#202454" stroke-linecap="round" stroke-linejoin="round" stroke-miterlimit="10" stroke-width="8"/></g><g><path fill="#232323" stroke="#232323" stroke-linecap="round" stroke-linejoin="round" stroke-miterlimit="10" stroke-width="8" d="
		M820.083,769.625h-18.705c-23.414,0-42.395-18.981-42.395-42.395l-1.477-100.696c0.826-19.854,19.149-35.501,40.949-35.501h24.551
		c21.8,0,40.123,15.648,40.949,35.501l-1.477,100.696C862.478,750.644,843.497,769.625,820.083,769.625z" opacity=".5"/><path fill="#e2e9f2" d="M810.083,755.102h-18.705c-23.414,0-42.395-18.981-42.395-42.395l-1.477-100.696
		c0.826-19.854,19.149-35.502,40.949-35.502h24.551c21.8,0,40.123,15.648,40.949,35.502l-1.477,100.696
		C852.478,736.121,833.497,755.102,810.083,755.102z"/><path fill="#e2e9f2" d="M816.832,576.675l-1.354,92.307c0,23.414-18.981,42.395-42.395,42.395h-18.705
		c-1.838,0-3.644-0.13-5.42-0.357l0.025,1.686c0,23.414,18.981,42.395,42.395,42.395h18.705c23.414,0,42.395-18.981,42.395-42.395
		l1.477-100.696C853.178,593.331,836.91,578.379,816.832,576.675z"/><path fill="none" stroke="#202454" stroke-linecap="round" stroke-linejoin="round" stroke-miterlimit="10" stroke-width="8" d="
		M810.083,755.102h-18.705c-23.414,0-42.395-18.981-42.395-42.395l-1.477-100.696c0.826-19.854,19.149-35.502,40.949-35.502h24.551
		c21.8,0,40.123,15.648,40.949,35.502l-1.477,100.696C852.478,736.121,833.497,755.102,810.083,755.102z"/><line x1="800.731" x2="800.731" y1="576.51" y2="634.746" fill="none" stroke="#202454" stroke-linecap="round" stroke-linejoin="round" stroke-miterlimit="10" stroke-width="8"/></g></svg>